<svg id="Layer_1" data-name="Layer 1" xmlns="http://www.w3.org/2000/svg" viewBox="0 0 122.88 97.37"><title>breakfast</title><path d="M60.27,0a44.56,44.56,0,0,1,44.55,44.55,43.83,43.83,0,0,1-.3,5.15,21.74,21.74,0,0,0-2.76-1.6c.09-1.17.15-2.35.15-3.55a41.38,41.38,0,0,0-4.2-18.22,4.14,4.14,0,0,1-.41.65l0,0-.07.09L88.11,38.82l-.08.1a4,4,0,0,1-2.3,1.32A3.87,3.87,0,0,1,83,39.53l-1.46-1.11a16.77,16.77,0,0,1,.55,2.4,8.74,8.74,0,0,1-1.22,6h0a11.79,11.79,0,0,1-4.34,4V64.69a1.24,1.24,0,0,1,0,.27A3.48,3.48,0,0,1,75,67.62a6,6,0,0,1-3.26.68H49.32l2.49-2.5H71.69a4.09,4.09,0,0,0,1.92-.29c.2-.13.32-.41.4-.91V50.08A1.27,1.27,0,0,1,74.69,49a9.91,9.91,0,0,0,4-3.48,6.35,6.35,0,0,0,.87-4.3,13,13,0,0,0-2.9-6.46c-1.81-1.4-3.61-2.8-5.43-4.19A28.3,28.3,0,0,0,58.9,27.88,26.63,26.63,0,0,0,44,32a13.24,13.24,0,0,0-5.25,6.44l-.35-.08A11.85,11.85,0,0,0,36.24,38a15.58,15.58,0,0,1,6.34-8.11,29.22,29.22,0,0,1,16.33-4.51q1,0,2,.06l-1.41-.57a3.69,3.69,0,0,1-2-1.73,3,3,0,0,1,0-2.48L63.86,5.9a.55.55,0,0,1,.08-.15,3.13,3.13,0,0,1,1.71-1.27,8.24,8.24,0,0,1,3.6.26A39.28,39.28,0,0,1,74.73,6.5l.25.11a25.55,25.55,0,0,1,6.38,3.46L80.24,11a26.72,26.72,0,0,0-5.82-3l-.25-.11a38.55,38.55,0,0,0-5.25-1.69,7.17,7.17,0,0,0-2.86-.27,1.49,1.49,0,0,0-.49.24,1.9,1.9,0,0,0-.4.4l-.12.28a36.79,36.79,0,0,1,7.89,2.32c2.2.86,4.42,1.86,6.23,2.79-.39.34-.77.69-1.15,1-1.65-.82-3.64-1.69-5.61-2.46-3.4-1.33-6.67-2.36-8-2.29l-5.54,13a1.63,1.63,0,0,0-.08,1.32,2.39,2.39,0,0,0,1.24,1L67,26.36q1.42.36,2.76.84a3.72,3.72,0,0,1,.7-1.41l10.32-13,.12-.13a3.58,3.58,0,0,1,1-.57A3,3,0,0,1,83,11.88a8.46,8.46,0,0,1,3.52,1.25,36.69,36.69,0,0,1,3.28,2l-.05-.05h0A41.65,41.65,0,0,0,19.05,50.49L17.54,51.9l-.29.28h0c-.25.26-.5.52-.73.78A44.55,44.55,0,0,1,60.27,0Zm55.17,95.41L99.91,78.17C87.85,79.23,79.42,61.52,88.09,55.6c10.52-7.19,24.54,10,17.21,18.68l16.28,17c3.93,4.11-1.9,8.86-6.14,4.15ZM27.06,74c3.34.63,6.1-.15,10-4.37L47.46,59.16c1.44-1.47-1-4.28-2.79-2.79l-8.55,8.35a1.68,1.68,0,1,1-2.37-2.37l8.84-8.65c1.52-1.59-.83-4.27-2.59-2.58-2.42,2.43-6.41,6.22-8.84,8.64-1.41,1.66-3.81-.34-2-2l8.78-8.58a2,2,0,0,0-1.2-3.28c-1.54-.35-2.54,1-3.6,2l-10.3,9.64c-2.84,2.94-4.44,6.07-3.18,9.34a8.13,8.13,0,0,0,1,1.73L1.13,86.6A3.59,3.59,0,0,0,1,91.73l.31.32a4.06,4.06,0,0,0,5.78-.12L24.88,72.8A6.16,6.16,0,0,0,27.06,74Zm10.39,5.44a41.68,41.68,0,0,0,46.13-.33c.45.47.92.93,1.41,1.37.25.22.51.45.77.66a44.58,44.58,0,0,1-51.29-.21l.26-.1a17.93,17.93,0,0,0,2.72-1.39ZM71.21,27.77a22.89,22.89,0,0,1,3.4,1.81,17.14,17.14,0,0,1,5.69,6l3.52,2.7a2.4,2.4,0,0,0,1.68.48,2.6,2.6,0,0,0,1.42-.85l8.79-11.34C94.59,25,91.34,22.19,88,19.73c-3-2.26-6-4.18-7.28-4.46l-9.1,11.44a1.88,1.88,0,0,0-.45,1.06ZM64.85,45.66a4.39,4.39,0,1,1-4.39,4.39,4.4,4.4,0,0,1,4.39-4.39Zm-2.77,12a1.59,1.59,0,1,1-1.59,1.58,1.58,1.58,0,0,1,1.59-1.58ZM51.47,38.63a2.71,2.71,0,1,1-2.7,2.7,2.7,2.7,0,0,1,2.7-2.7Zm-8.25-.21a1.33,1.33,0,0,1,.16,2.65L43,40.66a10,10,0,0,0-1.08-.84v-.07a1.33,1.33,0,0,1,1.34-1.33Zm27,.81A2.24,2.24,0,1,1,68,41.47a2.24,2.24,0,0,1,2.24-2.24ZM59.75,32.69a1.93,1.93,0,1,1-1.93,1.92,1.93,1.93,0,0,1,1.93-1.92ZM35.36,23.14a1.32,1.32,0,0,1-2.25-1.39A24,24,0,0,1,41,13.81,19.38,19.38,0,0,1,51.17,10.9a1.33,1.33,0,1,1,0,2.65,16.71,16.71,0,0,0-8.74,2.52,21.41,21.41,0,0,0-7,7.07ZM83,13.39a1.8,1.8,0,0,0-.56.11,2.32,2.32,0,0,0-.5.29l-.2.25A37,37,0,0,1,89,18.52a52.67,52.67,0,0,1,7.59,6.68,2.52,2.52,0,0,0,.08-.55,1.59,1.59,0,0,0,0-.48c-.54-1-1.12-1.9-1.73-2.82a36.12,36.12,0,0,0-4.1-3.6l-.23-.17a38.47,38.47,0,0,0-4.76-3.13A7.54,7.54,0,0,0,83,13.39Zm5.65,9.13a.76.76,0,0,0-.91,1.22.76.76,0,1,0,.91-1.22Zm2.27,2A.76.76,0,0,0,90,25.71a.76.76,0,1,0,.91-1.22Zm2,2.29A.76.76,0,0,0,92,28a.77.77,0,0,0,1.07-.15.77.77,0,0,0-.16-1.07Zm-6.69-6.05A.76.76,0,0,1,85.33,22a.76.76,0,0,1,.92-1.22Zm-2.53-1.62a.76.76,0,0,1-.92,1.22.77.77,0,0,1-.15-1.07.76.76,0,0,1,1.07-.15ZM81,17.81a.76.76,0,1,1-1.07.15A.76.76,0,0,1,81,17.81ZM73.69,13a.74.74,0,0,0-1,.42.74.74,0,0,0,1.37.54.74.74,0,0,0-.41-1Zm2.62,1.26a.72.72,0,0,0-1,.41.75.75,0,0,0,.18.82c.34-.36.68-.72,1-1.07a.76.76,0,0,0-.26-.16ZM71,11.89a.74.74,0,1,1-1,.42.74.74,0,0,1,1-.42ZM68.21,11a.74.74,0,1,1-.54,1.37A.74.74,0,1,1,68.21,11Zm-2.92-.5a.73.73,0,0,1,.42,1,.74.74,0,0,1-1,.42.74.74,0,0,1,.54-1.37Z"/></svg>